<svg version="1.2" width="223.03" height="54.01mm" viewBox="16050 14492 5901 5401" preserveAspectRatio="xMidYMid" fill-rule="evenodd" stroke-width="28.222" stroke-linejoin="round" xmlns="http://www.w3.org/2000/svg" xml:space="preserve"><defs class="ClipPathGroup"><clipPath id="a" clipPathUnits="userSpaceOnUse"><path d="M16050 14492h5901v5401h-5901z"/></clipPath></defs><g class="SlideGroup"><g class="Slide" clip-path="url(#a)"><g class="Page"><g class="Group"><g class="Group"><g class="com.sun.star.drawing.ClosedBezierShape"><path class="BoundingBox" fill="none" d="M16050 14492h5902v5403h-5902z"/><path fill="#ACACAC" d="M18654 15187c-1 2-2 3-3 4l-2075 3701c-35 63-51 124-51 196 0 74 17 136 54 200 36 64 82 110 146 146 64 37 126 54 200 54h4151c74 0 136-17 200-54 64-36 110-82 146-146 37-64 54-126 54-200 0-72-16-133-51-196l-2076-3701c-1-1-2-2-3-4-36-64-82-110-146-146-64-37-126-54-200-54s-136 17-200 54c-64 36-110 82-146 146zm-304-320c70-120 155-205 275-275 120-69 237-100 375-100s255 31 375 100c120 70 205 155 275 275l3 6 2201 3901c67 118 97 234 97 369 0 138-31 255-100 375-70 120-155 205-275 275-120 69-237 100-375 100h-4401c-138 0-255-31-375-100-120-70-205-155-275-275-69-120-100-237-100-375 0-135 30-250 97-368l2200-3901c1-3 2-5 3-7z"/></g></g><g class="Group"><g class="Group"><g class="com.sun.star.drawing.CustomShape"><path class="BoundingBox" fill="none" d="M18527 16654h519v519h-519z"/><path fill="#ACACAC" d="M18785 16654c146 0 259 112 259 258s-113 259-259 259-258-113-258-259 112-258 258-258zm-258 0zm518 518z"/></g><g class="com.sun.star.drawing.CustomShape"><path class="BoundingBox" fill="none" d="M18141 17171h619v1272h-619z"/><path fill="#ACACAC" d="M18618 17227c-95-28-217 39-244 134l-226 781c-27 94 39 216 134 244 94 28 217-40 244-134l226-781c27-95-40-217-134-244zm-189-55zm42 1269z"/></g><g class="com.sun.star.drawing.CustomShape"><path class="BoundingBox" fill="none" d="M18527 17268h503v523h-503z"/><path fill="#ACACAC" d="M18595 17283c-34 25-43 83-18 117l264 357c25 34 84 44 118 19s44-85 19-118l-264-358c-25-33-85-42-119-17zm-68 49zm501 394z"/></g><g class="com.sun.star.drawing.CustomShape"><path class="BoundingBox" fill="none" d="M18830 17649h618v190h-618z"/><path fill="#ACACAC" d="M18833 17730c-1 42 39 85 81 87l443 20c42 2 85-37 87-79 1-42-40-86-82-88l-443-20c-42-2-84 38-86 80zm-2 83zm615-139z"/></g><g class="com.sun.star.drawing.CustomShape"><path class="BoundingBox" fill="none" d="M18137 18033h1126v349h-1126z"/><path fill="#ACACAC" d="M19261 18206c0-87-87-172-174-172h-776c-87 0-173 87-173 174 0 86 88 172 175 172h776c87 0 172-88 172-174zm-1-173zm-1121 348z"/></g><g class="com.sun.star.drawing.CustomShape"><path class="BoundingBox" fill="none" d="M18994 18043h279v1168h-279z"/><path fill="#ACACAC" d="M19124 18043c-65 1-129 67-128 132l14 907c1 65 67 129 132 128s129-67 128-132l-14-907c-1-65-67-129-132-128zm-130 2zm278 1163z"/></g></g><g class="Group"><g class="com.sun.star.drawing.CustomShape"><path class="BoundingBox" fill="none" d="M19433 17822h994v172h-994z"/><path fill="#ACACAC" d="M19433 17908c0 42 42 84 84 84h824c42 0 84-42 84-84s-42-85-84-85h-824c-42 0-84 43-84 85zm0 84zm993-169z"/></g><g class="com.sun.star.drawing.CustomShape"><path class="BoundingBox" fill="none" d="M19606 17905h132v1338h-132z"/><path fill="#ACACAC" d="M19671 17905c-33 0-65 32-65 64v1207c0 32 32 65 65 65 32 0 65-33 65-65v-1207c0-32-33-64-65-64zm-65 0zm130 1337z"/></g><g class="com.sun.star.drawing.CustomShape"><path class="BoundingBox" fill="none" d="M20145 17905h132v1338h-132z"/><path fill="#ACACAC" d="M20210 17905c-33 0-65 32-65 64v1207c0 32 32 65 65 65 32 0 65-33 65-65v-1207c0-32-33-64-65-64zm-65 0zm130 1337z"/></g></g><g class="Group"><g class="com.sun.star.drawing.CustomShape"><path class="BoundingBox" fill="none" d="M17575 17315h372v961h-372z"/><path fill="#ACACAC" d="M17678 17317c-52 9-94 69-85 121l127 749c9 52 69 95 122 86 52-9 95-70 86-123l-127-748c-9-52-70-94-123-85zm-103 18zm371 920z"/></g><g class="com.sun.star.drawing.CustomShape"><path class="BoundingBox" fill="none" d="M17977 18364h833v222h-833z"/><path fill="#ACACAC" d="M17978 18468c0 53 51 106 104 107l619 10c53 1 106-50 107-103 0-53-52-107-105-108l-619-10c-53-1-105 51-106 104zm-1 105zm832-197z"/></g><g class="com.sun.star.drawing.CustomShape"><path class="BoundingBox" fill="none" d="M17687 18089h516v494h-516z"/><path fill="#ACACAC" d="M17771 18109c-42 32-52 105-20 147l220 287c32 41 105 51 147 19 41-32 51-106 19-148l-219-286c-33-42-106-51-147-19zm-84 64zm514 325z"/></g><g class="com.sun.star.drawing.CustomShape"><path class="BoundingBox" fill="none" d="M17694 18426h454v830h-454z"/><path fill="#ACACAC" d="M18111 18455c-29-14-72 0-86 29l-325 656c-14 29 0 72 29 86 28 14 73-1 87-30l325-656c14-28-1-71-30-85zm-58-28zm-266 828z"/></g><g class="com.sun.star.drawing.CustomShape"><path class="BoundingBox" fill="none" d="M18470 18438h374v796h-374z"/><path fill="#ACACAC" d="M18533 18441c-31 9-53 51-43 82l206 664c10 31 51 53 83 43 32-9 53-51 43-82l-206-664c-10-31-51-53-83-43zm-63 19zm372 751z"/></g></g><g class="Group"><g class="com.sun.star.drawing.CustomShape"><path class="BoundingBox" fill="none" d="M19907 16655h131v950h-131z"/><path fill="#ACACAC" d="M19972 16655c-33 0-65 32-65 65v819c0 32 32 65 65 65 32 0 65-33 65-65v-819c0-33-33-65-65-65zm-65 0zm130 949z"/></g><g class="com.sun.star.drawing.CustomShape"><path class="BoundingBox" fill="none" d="M19736 17776h432v130h-432z"/><path fill="#ACACAC" d="M19736 17841c0 32 32 64 64 64h302c32 0 64-32 64-64s-32-65-64-65h-302c-32 0-64 33-64 65zm0 64zm431-129z"/></g><g class="com.sun.star.drawing.CustomShape"><path class="BoundingBox" fill="none" d="M20019 17641h147v198h-147z"/><path fill="#ACACAC" d="M20033 17818c14 10 37 6 47-7l78-104c10-14 8-36-6-46s-39-6-49 8l-78 104c-10 13-6 36 8 45zm27 19zm64-196z"/></g><g class="com.sun.star.drawing.CustomShape"><path class="BoundingBox" fill="none" d="M19979 17510h195v203h-195z"/><path fill="#ACACAC" d="M20146 17706c13-9 17-31 7-44l-102-140c-10-12-32-16-46-7-13 9-16 31-7 44l103 140c9 13 32 16 45 7zm26-18zm-193-154z"/></g><g class="com.sun.star.drawing.CustomShape"><path class="BoundingBox" fill="none" d="M19993 16703h89v845h-89z"/><path fill="#ACACAC" d="m19993 17547 6-843 81 65-4 714-83 64zm0 0zm88-843z"/></g></g></g></g></g></g></g></svg>