<svg version="1.2" width="223.03" height="54.01mm" viewBox="21050 9491 5901 5401" preserveAspectRatio="xMidYMid" fill-rule="evenodd" stroke-width="28.222" stroke-linejoin="round" xmlns="http://www.w3.org/2000/svg" xml:space="preserve"><defs class="ClipPathGroup"><clipPath id="a" clipPathUnits="userSpaceOnUse"><path d="M21050 9491h5901v5401h-5901z"/></clipPath></defs><g class="SlideGroup"><g class="Slide" clip-path="url(#a)"><g class="Page"><g class="Group"><g class="Group"><g class="com.sun.star.drawing.PolyPolygonShape"><path class="BoundingBox" fill="none" d="M21800 10241h4402v3902h-4402z"/><path d="m24000 10241 2201 3901h-4401l2200-3901zm-2200 0zm4401 3901z"/></g><g class="com.sun.star.drawing.ClosedBezierShape"><path class="BoundingBox" fill="none" d="M21050 9491h5902v5402h-5902z"/><path d="M23350 9866c70-120 155-205 275-275 120-69 237-100 375-100s255 31 375 100c120 70 205 155 275 275l3 6 2201 3901c67 118 97 234 97 369 0 138-31 255-100 375-70 120-155 205-275 275-120 69-237 100-375 100h-4401c-138 0-255-31-375-100-120-70-205-155-275-275-69-120-100-237-100-375 0-135 30-250 97-368l2200-3901c1-3 2-5 3-7zm650 1902-916 1624h1833l-917-1624z"/></g></g><g class="com.sun.star.drawing.CustomShape"><path class="BoundingBox" fill="none" d="M21525 9985h4952v4503h-4952z"/><path fill="#FDF100" d="m24000 10386 2076 3701h-4151l2075-3701zm-2075 0zm4151 3701z"/><path fill="none" stroke="#FDF100" stroke-width="800" d="m24000 10386 2076 3701h-4151l2075-3701z"/></g></g><g class="Group"><g class="Group"><g class="com.sun.star.drawing.CustomShape"><path class="BoundingBox" fill="none" d="M23527 11653h519v519h-519z"/><path d="M23785 11653c146 0 259 112 259 258s-113 259-259 259-258-113-258-259 112-258 258-258zm-258 0zm518 518z"/></g><g class="com.sun.star.drawing.CustomShape"><path class="BoundingBox" fill="none" d="M23139 12170h619v1272h-619z"/><path d="M23616 12226c-95-28-217 39-244 134l-226 781c-27 94 39 216 134 244 94 28 217-40 244-134l226-781c27-95-40-217-134-244zm-189-55zm42 1269z"/></g><g class="com.sun.star.drawing.CustomShape"><path class="BoundingBox" fill="none" d="M23526 12269h503v523h-503z"/><path d="M23594 12284c-34 25-43 83-18 117l264 357c25 34 84 44 118 19s43-85 19-118l-264-358c-25-33-85-42-119-17zm-68 49zm501 394z"/></g><g class="com.sun.star.drawing.CustomShape"><path class="BoundingBox" fill="none" d="M23829 12645h618v190h-618z"/><path d="M23832 12726c-1 42 39 85 81 87l443 20c42 2 85-37 87-79 1-42-40-86-82-88l-443-20c-42-2-84 38-86 80zm-2 83zm615-139z"/></g><g class="com.sun.star.drawing.CustomShape"><path class="BoundingBox" fill="none" d="M23137 13034h1126v349h-1126z"/><path d="M24261 13207c0-87-87-172-174-172h-776c-87 0-173 87-173 174 0 86 88 172 175 172h776c87 0 172-88 172-174zm-1-173zm-1121 348z"/></g><g class="com.sun.star.drawing.CustomShape"><path class="BoundingBox" fill="none" d="M23994 13042h279v1168h-279z"/><path d="M24125 13042c-65 1-129 67-129 132l14 907c1 65 66 129 131 128s130-67 129-132l-14-907c-1-65-66-129-131-128zm-130 2zm276 1163z"/></g></g><g class="Group"><g class="com.sun.star.drawing.CustomShape"><path class="BoundingBox" fill="none" d="M24433 12821h994v172h-994z"/><path d="M24433 12907c0 42 42 84 84 84h824c42 0 84-42 84-84s-42-85-84-85h-824c-42 0-84 43-84 85zm0 84zm993-169z"/></g><g class="com.sun.star.drawing.CustomShape"><path class="BoundingBox" fill="none" d="M24606 12903h131v1339h-131z"/><path d="M24671 12904c-33 0-65 32-65 64v1207c0 32 32 65 65 65 32 0 65-33 65-65v-1207c0-32-33-64-65-64zm-65 0zm130 1337z"/></g><g class="com.sun.star.drawing.CustomShape"><path class="BoundingBox" fill="none" d="M25145 12903h131v1339h-131z"/><path d="M25210 12904c-33 0-65 32-65 64v1207c0 32 32 65 65 65 32 0 65-33 65-65v-1207c0-32-33-64-65-64zm-65 0zm130 1337z"/></g></g><g class="Group"><g class="com.sun.star.drawing.CustomShape"><path class="BoundingBox" fill="none" d="M22576 12314h372v961h-372z"/><path d="M22680 12316c-53 9-95 69-86 121l127 749c9 52 69 95 121 86 53-9 96-70 87-123l-127-748c-9-52-70-94-122-85zm-104 18zm371 920z"/></g><g class="com.sun.star.drawing.CustomShape"><path class="BoundingBox" fill="none" d="M22977 13361h834v222h-834z"/><path d="M22978 13465c0 53 51 106 104 107l619 10c53 1 106-50 107-103 0-53-52-107-105-108l-619-10c-53-1-105 51-106 104zm-1 105zm832-197z"/></g><g class="com.sun.star.drawing.CustomShape"><path class="BoundingBox" fill="none" d="M22687 13088h516v494h-516z"/><path d="M22771 13108c-42 32-52 105-20 147l220 287c32 41 105 51 147 19 41-32 51-106 19-148l-219-286c-33-42-106-51-147-19zm-84 64zm514 325z"/></g><g class="com.sun.star.drawing.CustomShape"><path class="BoundingBox" fill="none" d="M22698 13426h454v830h-454z"/><path d="M23115 13455c-29-14-72 0-86 29l-325 656c-14 29 0 72 29 86 28 14 73-1 87-30l325-656c14-28-1-71-30-85zm-58-28zm-266 828z"/></g><g class="com.sun.star.drawing.CustomShape"><path class="BoundingBox" fill="none" d="M23469 13437h374v796h-374z"/><path d="M23532 13440c-31 9-53 51-43 82l206 664c10 31 51 53 83 43 32-9 53-51 43-82l-206-664c-10-31-51-53-83-43zm-63 19zm372 751z"/></g></g><g class="Group"><g class="com.sun.star.drawing.CustomShape"><path class="BoundingBox" fill="none" d="M24907 11654h132v950h-132z"/><path d="M24972 11654c-33 0-65 32-65 65v819c0 32 32 65 65 65 32 0 65-33 65-65v-819c0-33-33-65-65-65zm-65 0zm130 949z"/></g><g class="com.sun.star.drawing.CustomShape"><path class="BoundingBox" fill="none" d="M24736 12775h432v130h-432z"/><path d="M24736 12840c0 32 32 64 64 64h302c32 0 64-32 64-64s-32-65-64-65h-302c-32 0-64 33-64 65zm0 64zm431-129z"/></g><g class="com.sun.star.drawing.CustomShape"><path class="BoundingBox" fill="none" d="M25016 12639h147v198h-147z"/><path d="M25030 12816c14 10 37 6 47-7l78-104c10-14 8-36-6-46s-39-6-49 8l-78 103c-10 14-6 37 8 46zm27 19zm64-196z"/></g><g class="com.sun.star.drawing.CustomShape"><path class="BoundingBox" fill="none" d="M24981 12507h195v203h-195z"/><path d="M25148 12703c13-9 17-31 7-44l-102-140c-10-12-32-16-46-7-13 9-16 31-7 44l103 140c9 13 32 16 45 7zm26-18zm-193-154z"/></g><g class="com.sun.star.drawing.CustomShape"><path class="BoundingBox" fill="none" d="M24993 11702h89v845h-89z"/><path d="m24993 12546 6-843 81 65-4 714-83 64zm0 0zm88-843z"/></g></g></g></g></g></g></svg>