<svg version="1.2" width="40mm" height="40mm" viewBox="8500 8001 4000 4000" preserveAspectRatio="xMidYMid" fill-rule="evenodd" stroke-width="28.222" stroke-linejoin="round" xmlns="http://www.w3.org/2000/svg" xml:space="preserve"><defs class="ClipPathGroup"><clipPath id="a" clipPathUnits="userSpaceOnUse"><path d="M8500 8001h4000v4000H8500z"/></clipPath></defs><g class="SlideGroup"><g class="Slide" clip-path="url(#a)"><g class="Page"><g class="Group"><g class="com.sun.star.drawing.CustomShape"><path class="BoundingBox" fill="none" d="M8500 8001h4001v4001H8500z"/></g><g class="Group"><g class="com.sun.star.drawing.PolyPolygonShape"><path class="BoundingBox" fill="none" d="M9215 9919h576v176h-576z"/><path fill="#FFB356" d="M9216 9920h574v173h-574v-173z"/></g><g class="com.sun.star.drawing.ClosedBezierShape"><path class="BoundingBox" fill="none" d="M11198 9713h588v577h-588z"/><path fill="#FFB356" d="M11578 9920v-207h-173v207h-206v173h206v196h173v-196h206v-173h-206z"/></g><g class="com.sun.star.drawing.ClosedBezierShape"><path class="BoundingBox" fill="none" d="M8499 9051h4003v1902H8499z"/><path fill="#FFB356" d="M11513 9051c-346 0-715 174-1018 608-293-434-672-608-1020-608-401 0-867 228-975 825v260c0 22 33 141 54 207 195 445 596 608 921 608 358 0 716-184 1030-608 304 445 672 608 1020 608 487 0 975-380 975-955 0-543-455-945-987-945zm-1300 1107c-250 326-467 457-738 457-21 0-108-11-162-22-206-11-477-336-477-467v-250c76-369 401-488 639-488 131 0 120-22 271 43 87 33 185 109 283 185 0 0 282 325 282 380-1 32-66 108-98 162zm1312 457c-260 0-456-98-716-413-43-65-109-174-109-206 0-22 65-131 109-196 217-304 455-412 716-412 347 0 650 250 650 608 0 380-336 619-650 619z"/></g></g></g></g></g></g></svg>