<svg version="1.2" width="40mm" height="40mm" viewBox="3000 13001 4000 4000" preserveAspectRatio="xMidYMid" fill-rule="evenodd" stroke-width="28.222" stroke-linejoin="round" xmlns="http://www.w3.org/2000/svg" xml:space="preserve"><defs class="ClipPathGroup"><clipPath id="a" clipPathUnits="userSpaceOnUse"><path d="M3000 13001h4000v4000H3000z"/></clipPath></defs><g class="SlideGroup"><g class="Slide" clip-path="url(#a)"><g class="Page"><g class="Group"><g class="Group"><g class="com.sun.star.drawing.CustomShape"><path class="BoundingBox" fill="none" d="M3531 13531h2944v2944H3531z"/><path fill="#E6A14B" d="M5002 13531c834 0 1471 637 1471 1471s-637 1471-1471 1471-1471-637-1471-1471 637-1471 1471-1471zm-2 197c721 0 1273 551 1273 1272s-552 1273-1273 1273-1272-552-1272-1273 551-1272 1272-1272zm-1469-197zm2943 2943z"/></g><g class="com.sun.star.drawing.PolyPolygonShape"><path class="BoundingBox" fill="none" d="M4286 14151h814v949h-814z"/><path fill="#E6A14B" d="M4905 14151h194v948h-813v-193h619v-755z"/></g></g><g class="com.sun.star.drawing.CustomShape"><path class="BoundingBox" fill="none" d="M3000 13001h4001v4001H3000z"/></g></g></g></g></g></svg>