<svg version="1.2" width="40mm" height="40mm" viewBox="14000 3001 4000 4000" preserveAspectRatio="xMidYMid" fill-rule="evenodd" stroke-width="28.222" stroke-linejoin="round" xmlns="http://www.w3.org/2000/svg" xml:space="preserve"><defs class="ClipPathGroup"><clipPath id="a" clipPathUnits="userSpaceOnUse"><path d="M14000 3001h4000v4000h-4000z"/></clipPath></defs><g class="SlideGroup"><g class="Slide" clip-path="url(#a)"><g class="Page"><g class="Group"><g class="com.sun.star.drawing.CustomShape"><path class="BoundingBox" fill="none" d="M14000 3001h4001v4001h-4001z"/></g><g class="com.sun.star.drawing.ClosedBezierShape"><path class="BoundingBox" fill="none" d="M13999 3870h4003v2263h-4003z"/><path fill="#FFB356" d="M16837 5538c-26-15-46-34-61-61-15-26-22-53-22-83 0-31 7-57 22-84 15-26 35-45 61-61 27-15 53-22 83-22 31 0 57 7 84 22 27 16 45 35 61 61 15 27 22 53 22 84 0 30-7 57-22 83-16 27-34 46-61 61s-53 22-84 22c-30 0-56-7-83-22zm-1841 0c-27-15-45-34-61-61-15-26-22-53-22-83 0-31 7-57 22-84 16-26 35-45 61-61 27-15 53-22 84-22 30 0 56 7 83 22 26 16 46 35 61 61 15 27 22 53 22 84 0 30-7 57-22 83-15 27-35 46-61 61-27 15-53 22-83 22-31 0-57-7-84-22zm2317-1559c1-1 2-2 2-4 7-11 10-22 10-34 0-13-3-24-10-35-6-11-14-19-25-26-11-6-22-9-35-9-12 0-23 3-34 9-11 7-19 15-26 26-1 1-1 2-2 4l-337 584c-283-127-546-183-856-183s-573 56-856 183l-337-584c-1-2-1-3-2-4-7-11-15-19-26-26-11-6-22-9-34-9-13 0-24 3-35 9-11 7-19 15-25 26-7 11-10 22-10 35 0 12 3 23 10 34 0 2 1 3 2 4l333 577c-572 312-963 891-1020 1575h4000c-57-684-448-1263-1020-1575l333-577z"/></g></g></g></g></g></svg>