<svg xmlns="http://www.w3.org/2000/svg" width="151.181" height="151.181" viewBox="8501 8000 4000 4000" preserveAspectRatio="xMidYMid" fill-rule="evenodd" stroke-width="28.222" stroke-linejoin="round" xmlns:v="https://vecta.io/nano"><defs><clipPath id="A"><path d="M8501 8000h4000v4000H8501z"/></clipPath></defs><g clip-path="url(#A)"><path fill="#ffb356" d="M10360 8740h-379v2195l-296-57v-295l-351-57v662l1026 268V8740zm193 2827l1117-323 243-2792-1360-5v3120zm-1504 12l-292-3572 3487 8-309 3564-1422 413-1464-413z"/><path fill="#fad43e" d="M10644 8740v1585l651-94-35 577-616 211v437l911-212 70-1393h-579v-691h579l71-420h-1052zm-131 2906V8348l1437 5-256 2951-1181 342z"/></g></svg>