<svg version="1.2" width="40mm" height="40mm" viewBox="3000 3000 4000 4000" preserveAspectRatio="xMidYMid" fill-rule="evenodd" stroke-width="28.222" stroke-linejoin="round" xmlns="http://www.w3.org/2000/svg" xml:space="preserve"><defs class="ClipPathGroup"><clipPath id="a" clipPathUnits="userSpaceOnUse"><path d="M3000 3000h4000v4000H3000z"/></clipPath></defs><g class="SlideGroup"><g class="Slide" clip-path="url(#a)"><g class="Page"><g class="Group"><g class="com.sun.star.drawing.CustomShape"><path class="BoundingBox" fill="none" d="M3000 3000h4001v4001H3000z"/></g><g class="com.sun.star.drawing.ClosedBezierShape"><path class="BoundingBox" fill="none" d="M3150 3016h3699v3968H3150z"/><path fill="#333" d="M5242 3305c66 113 111 395 134 768h418v-396c-9-4-18-9-26-14-16-10-30-22-43-34l-2-2c-22-22-39-49-52-79-12-29-19-61-19-95s7-66 19-96c13-30 32-58 54-81 23-23 50-41 81-54 29-12 62-19 95-19 34 0 65 7 95 19 31 13 58 32 81 54 23 23 41 51 54 81v2c12 29 18 61 18 93 0 34-6 66-19 96-12 30-31 58-53 81l-2 1c-12 11-24 22-37 31-7 4-15 9-23 13v511c0 31-12 59-32 79s-48 32-78 32h-518c4 106 7 218 8 333h980c4-8 9-16 14-24l1-1c9-15 20-28 32-40 23-23 50-41 81-54h2c29-12 60-19 93-19s65 7 95 19c31 13 58 32 81 54 23 23 41 50 54 81 12 30 19 62 19 95 0 34-7 66-19 96-13 30-32 58-54 81-23 23-50 41-81 54h-2c-29 12-61 18-93 18-34 0-66-6-95-19-30-12-58-31-81-54-12-12-23-25-33-41-5-7-10-15-14-24h-980c-1 126-4 254-8 385h1199c31 0 58 13 78 33s33 47 33 78v824c10 5 20 10 30 16 18 10 33 23 47 37 23 23 42 50 54 81l1 2c12 29 18 60 18 93 0 34-6 66-19 95-12 31-31 58-54 81-22 23-50 42-80 54-30 13-61 19-95 19-33 0-66-6-95-19-31-12-58-31-81-54s-42-50-54-81c-12-29-19-61-19-95s7-66 19-95c12-31 31-58 54-81 10-11 22-20 34-29l18-12v-725H5378c-4 105-10 210-17 314h355c31 0 59 13 79 33s32 48 32 79v441c8 4 16 8 23 13 15 10 28 21 40 33l2 2c22 22 40 49 53 79 12 29 19 61 19 95s-7 66-19 95l-1 2c-13 30-31 57-54 79l-1 2c-23 22-50 40-79 52-29 13-62 20-95 20-34 0-66-7-95-20-31-12-58-31-81-53l-2-2c-22-23-40-50-52-79-13-30-19-62-19-96 0-33 6-65 19-95 12-31 31-58 54-81 12-13 26-24 41-34 8-5 17-10 25-14v-328h-261c-3 44-7 88-11 132-5 57-22 162-11 214 28 138-96 554-459 630-180 38-366-18-506-127-112-88-196-211-227-350-58-2-118-14-176-34-128-43-252-127-348-239-97-112-167-253-189-409-12-82-10-167 8-255-63-57-117-121-160-191-75-120-115-255-114-393 2-140 46-281 143-413 56-77 129-150 223-216-1-26-1-51 0-77 7-204 82-383 192-517 113-139 265-230 421-252 6-23 12-45 21-67 50-137 153-253 280-327s281-107 430-76c142 30 279 116 381 277z"/></g><g class="com.sun.star.drawing.ClosedBezierShape"><path class="BoundingBox" fill="none" d="M3426 3282h1689v3436H3426z"/><path fill="#FFB356" d="M4143 6219c52-167 192-333 455-468 66-33 146-7 180 58 33 66 7 146-58 180-244 125-336 268-336 393 0 98 55 189 136 252 82 64 187 97 287 76 125-26 243-141 306-392V3678c-63-249-181-364-305-389-82-18-169 2-243 45-75 44-136 111-164 189-38 103-16 230 113 349 54 50 57 134 7 188-50 53-133 57-187 7-100-93-162-192-193-291-79 19-157 72-220 149-74 90-124 212-129 352-2 37 0 76 6 117h-1c8 52-16 106-63 136-97 59-168 125-218 193-61 82-88 169-89 253s25 168 71 244c40 64 94 123 160 172 50 34 73 98 53 158-26 78-32 153-22 223 14 101 61 193 125 266 64 75 145 130 228 159 34 13 67 19 101 21z"/></g><g class="com.sun.star.drawing.ClosedBezierShape"><path class="BoundingBox" fill="none" d="M3913 4305h487v1288h-487z"/><path fill="#333" d="M4173 4344c52-52 136-51 187 1 52 53 51 136-1 188-114 112-173 257-180 405-6 151 43 308 147 437 46 57 37 141-20 187s-141 37-187-20c-145-181-214-400-205-615 9-213 95-422 259-583z"/></g></g></g></g></g></svg>