<svg xmlns="http://www.w3.org/2000/svg" width="151.181" height="151.181" viewBox="14001 8001 4000 4000" preserveAspectRatio="xMidYMid" fill-rule="evenodd" stroke-width="28.222" stroke-linejoin="round" xmlns:v="https://vecta.io/nano"><defs><clipPath id="A"><path d="M14001 8001h4000v4000h-4000z"/></clipPath></defs><g clip-path="url(#A)"><path fill="#de943b" d="M16243 8306c66 113 111 394 134 767h418v-396c-9-4-18-9-26-14-16-10-30-22-43-34l-2-2c-22-22-39-49-52-79-12-29-19-61-19-94 0-34 7-66 19-96 13-30 32-58 54-81 23-23 50-41 81-54 29-12 62-19 95-19 34 0 65 7 95 19 31 13 58 32 81 54 23 23 41 51 54 81v2c12 29 18 61 18 93 0 33-6 65-19 95-12 30-31 58-53 81l-2 1c-12 11-24 22-37 31-7 4-15 9-23 13v511c0 31-12 59-32 79s-48 32-78 32h-518l8 333h980c4-8 9-16 14-24l1-1c9-15 20-28 32-40 23-23 50-41 81-54h2c29-12 60-19 93-19s65 7 95 19c31 13 58 32 81 54 23 23 41 50 54 81 12 30 19 62 19 95 0 34-7 66-19 96-13 30-32 58-54 81-23 23-50 41-81 54h-2c-29 12-61 18-93 18-34 0-66-6-95-19-30-12-58-31-81-54-12-12-23-25-33-41-5-7-10-15-14-24h-980l-8 386h1199c31 0 58 13 78 33s33 47 33 78v824c10 5 20 10 30 16 18 10 33 23 47 37 23 23 42 50 54 81l1 2c12 29 18 60 18 93 0 34-6 66-19 95-12 31-31 58-54 81-22 23-50 42-80 54-30 13-61 19-95 19-33 0-66-6-95-19-31-12-58-31-81-54s-42-50-54-81c-12-29-19-61-19-95s7-66 19-95c12-31 31-58 54-81 10-11 22-20 34-29l18-12v-725h-1097c-4 105-10 210-17 314h355c31 0 59 13 79 33s32 48 32 79v441c8 4 16 8 23 13 15 10 28 21 40 33l2 2c22 22 40 49 53 79 12 29 19 61 19 95s-7 66-19 95l-1 2c-13 30-31 57-54 79l-1 2c-23 22-50 39-79 52-29 12-62 20-95 20-34 0-66-7-95-20-31-12-58-31-81-53l-2-2c-22-23-40-50-52-79-13-30-19-63-19-96 0-34 6-65 19-95 12-31 31-58 54-81 12-13 26-24 41-34a313.77 313.77 0 0 1 25-14v-328h-261l-11 132c-5 57-22 162-11 214 28 138-96 554-459 630-180 38-366-18-506-127-112-88-196-211-227-350-58-2-118-14-176-34-128-43-252-127-348-239-97-112-167-253-189-409-12-82-10-167 8-255-63-57-117-121-160-191-75-120-115-255-114-394 2-140 46-281 143-413 56-77 129-150 223-216a988.54 988.54 0 0 1 0-77c7-204 82-383 192-517 113-139 265-230 421-252 6-23 12-44 21-66 50-137 153-253 280-327s281-107 430-76c143 30 279 116 381 277z"/><path fill="#ffb356" d="M15175 9345c-164 161-250 370-259 583-9 216 60 435 205 616 46 57 130 66 187 20s66-130 20-187c-104-129-153-286-147-438 7-148 66-293 180-405 52-52 53-135 1-188-51-51-135-52-187-1zm-31 1875c-34-2-67-8-101-21-83-29-164-84-228-159-64-73-111-165-125-266-10-70-4-145 22-223 20-60-3-124-53-158-66-49-120-108-160-172-46-76-72-160-71-245 1-84 28-171 89-253 50-68 121-134 218-193 47-30 71-84 63-136h1c-6-41-8-80-6-117 5-140 55-262 129-352 63-77 141-130 220-149 31 99 93 198 193 291 54 50 137 46 187-7 50-54 47-138-7-188-129-119-151-245-113-348 28-78 89-145 164-189 74-43 161-63 243-45 124 25 243 140 306 389v2640c-63 251-182 366-307 392-100 21-205-12-287-76-81-63-136-154-136-252 0-125 92-268 336-393 65-34 91-114 58-180-34-65-114-91-180-58-263 135-403 301-455 468z"/></g></svg>