<svg version="1.2" width="40.06mm" height="40.03mm" viewBox="3000 3001 4006 4003" preserveAspectRatio="xMidYMid" fill-rule="evenodd" stroke-width="28.222" stroke-linejoin="round" xmlns="http://www.w3.org/2000/svg" xml:space="preserve"><defs class="ClipPathGroup"><clipPath id="a" clipPathUnits="userSpaceOnUse"><path d="M3000 3001h4006v4003H3000z"/></clipPath></defs><g class="SlideGroup"><g class="Slide" clip-path="url(#a)"><g class="Page"><g class="Group"><g class="com.sun.star.drawing.CustomShape"><path class="BoundingBox" fill="none" d="M3000 3001h4001v4001H3000z"/></g><g class="com.sun.star.drawing.ClosedBezierShape"><path class="BoundingBox" fill="none" d="M4080 4033h2927v2972H4080z"/><path fill="#FFD320" d="M6932 4516c-68-275-199-482-475-482h-358v422c0 328-277 601-595 601h-948c-260 0-475 223-475 483v908c0 258 224 409 475 483 301 88 588 105 949 0 239-69 475-209 475-483v-363h-950v-122h1427c276 0 379-193 475-482 100-298 96-582 0-965z"/></g><g class="com.sun.star.drawing.ClosedBezierShape"><path class="BoundingBox" fill="none" d="M3017 3016h2921v2950H3017z"/><path fill="#FFB356" d="M4512 4941h949c264 0 475-218 475-483v-909c0-258-217-451-475-494-320-53-663-50-949 0-403 71-475 220-475 495v363h952v122H3679c-277 0-520 166-595 482-87 363-91 586 0 965 67 281 229 482 506 482h328v-434c-1-315 271-589 594-589z"/></g><g class="com.sun.star.drawing.ClosedBezierShape"><path class="BoundingBox" fill="none" d="M5385 6326h361v365h-361z"/><path fill="#FFF" d="M5564 6326c99 0 180 81 180 181 0 101-80 182-180 182-97 0-179-82-179-182 1-100 81-181 179-181z"/></g><g class="com.sun.star.drawing.ClosedBezierShape"><path class="BoundingBox" fill="none" d="M4272 3306h361v365h-361z"/><path fill="#FFF" d="M4453 3670c-99 0-180-81-180-181 1-101 80-182 180-182 97 0 179 82 179 182s-80 181-179 181z"/></g></g></g></g></g></svg>