<svg xmlns="http://www.w3.org/2000/svg" width="151.408" height="151.294" viewBox="3000 8002 4006 4003" preserveAspectRatio="xMidYMid" fill-rule="evenodd" stroke-width="28.222" stroke-linejoin="round" xmlns:v="https://vecta.io/nano"><defs><clipPath id="A"><path d="M3000 8002h4006v4003H3000z"/></clipPath></defs><g clip-path="url(#A)"><path fill="#ffd320" d="M5564 11327c-98 0-178 81-179 181 0 100 82 182 179 182 100 0 180-81 180-182 0-100-81-181-180-181zm1368-1810c96 383 100 668 0 966-96 289-199 482-475 482H5031v121h950v363c0 274-236 414-475 483-361 105-649 88-950 0-251-74-475-225-475-483v-907c0-260 215-483 475-483h949c318 0 594-274 594-602v-422h358c276 0 407 207 475 482z"/><path fill="#ffb356" d="M4453 8671c99 0 179-81 179-181s-82-182-179-182c-100 0-179 81-180 182 0 100 81 181 180 181zm58 1270c-323 0-594 275-593 590v434h-328c-277 0-439-201-506-482-91-379-87-603 0-966 75-316 318-482 595-482h1309v-122h-951v-362c0-275 71-424 474-495 286-50 630-53 950 0 258 43 475 236 475 494v908c0 265-211 483-475 483h-950z"/></g></svg>